<svg id="Layer_1" data-name="Layer 1" xmlns="http://www.w3.org/2000/svg" viewBox="0 0 347.9 79.42"><title>Artboard 1</title><path d="M6.91,25.34H8.78l.29,5.48h.15a33,33,0,0,1,5.54-4.54,11.62,11.62,0,0,1,6.41-1.8q5.32,0,7.85,3.17t2.52,9.93V59.76H29.38V37.87c0-3.84-.65-6.69-1.95-8.57S24,26.5,21,26.5a10.81,10.81,0,0,0-5.94,1.72,34.66,34.66,0,0,0-6,5.19V59.76H6.91Z"/><path d="M41.76,42.62A22.7,22.7,0,0,1,43,34.92a17,17,0,0,1,3.31-5.69,14.44,14.44,0,0,1,21.46,0,16.87,16.87,0,0,1,3.31,5.69,22.46,22.46,0,0,1,1.23,7.7,21.91,21.91,0,0,1-1.23,7.6,16.87,16.87,0,0,1-3.31,5.65,14.45,14.45,0,0,1-21.46,0A17,17,0,0,1,43,50.22,22.15,22.15,0,0,1,41.76,42.62Zm2.3,0a19.91,19.91,0,0,0,1,6.52,16.37,16.37,0,0,0,2.74,5,12,12,0,0,0,4.1,3.28,12,12,0,0,0,10.23,0,12,12,0,0,0,4.1-3.28,16.58,16.58,0,0,0,2.74-5,19.92,19.92,0,0,0,1-6.52,20.29,20.29,0,0,0-1-6.51A16.39,16.39,0,0,0,66.24,31a12.47,12.47,0,0,0-4.1-3.32,11.68,11.68,0,0,0-10.23,0A12.47,12.47,0,0,0,47.81,31a16.19,16.19,0,0,0-2.74,5.11A20.29,20.29,0,0,0,44.06,42.62Z"/><path d="M80.06,42.62a21.69,21.69,0,0,1,1.23-7.52,17.43,17.43,0,0,1,3.34-5.72,14.63,14.63,0,0,1,4.9-3.64,14.2,14.2,0,0,1,5.94-1.26A12.8,12.8,0,0,1,101,25.6a28.61,28.61,0,0,1,5.12,3.2L106,22.32V7.78h2.16v52h-1.87L106,55.15h-.14a24.2,24.2,0,0,1-5,3.82A13.87,13.87,0,0,1,83.92,56Q80.07,51.4,80.06,42.62Zm2.31,0a24.79,24.79,0,0,0,.79,6.52,15.32,15.32,0,0,0,2.34,5,10.68,10.68,0,0,0,3.78,3.28,11.23,11.23,0,0,0,5.18,1.15,11.76,11.76,0,0,0,5.8-1.55,26.56,26.56,0,0,0,5.72-4.5V31.25a21.7,21.7,0,0,0-5.43-3.67,13,13,0,0,0-5.22-1.08,10.78,10.78,0,0,0-5.12,1.26,12.88,12.88,0,0,0-4.1,3.45,17.31,17.31,0,0,0-2.73,5.15A19.06,19.06,0,0,0,82.37,42.62Z"/><path d="M118.94,42.62a21.56,21.56,0,0,1,1.26-7.56,18.42,18.42,0,0,1,3.31-5.72,14.46,14.46,0,0,1,4.72-3.6,12.82,12.82,0,0,1,5.54-1.26,11.84,11.84,0,0,1,9.47,4.07q3.49,4.07,3.49,11.77v1.12a5.17,5.17,0,0,1-.14,1.18H121.25a20,20,0,0,0,1,6.38A16,16,0,0,0,125,54.07a12.33,12.33,0,0,0,4.25,3.35,12.82,12.82,0,0,0,5.58,1.19,14.84,14.84,0,0,0,5.26-.87,17.29,17.29,0,0,0,4.25-2.3l1,1.87a31.55,31.55,0,0,1-4.35,2.27,16,16,0,0,1-6.3,1,15.2,15.2,0,0,1-6.09-1.22,14.7,14.7,0,0,1-5-3.56,16.72,16.72,0,0,1-3.38-5.66A21.56,21.56,0,0,1,118.94,42.62Zm25.63-1.87q0-7.2-2.95-10.73a9.72,9.72,0,0,0-7.85-3.52,10.47,10.47,0,0,0-4.46,1,12.32,12.32,0,0,0-3.85,2.85,15.22,15.22,0,0,0-2.81,4.46,19.46,19.46,0,0,0-1.4,5.94Z"/><path d="M153.07,40.75h15.55v2.16H153.07Z"/><path d="M178.27,25.34h1.87l.29,5.48h.14a23.36,23.36,0,0,1,5.26-4.54,10.7,10.7,0,0,1,5.69-1.8q4.24,0,6.44,2A10.52,10.52,0,0,1,201,31.68,30.73,30.73,0,0,1,207,26.39a10.65,10.65,0,0,1,5.87-1.91c3.41,0,6,1.06,7.67,3.17s2.55,5.42,2.55,9.93V59.76h-2.16V37.87c0-3.84-.66-6.69-2-8.57s-3.39-2.8-6.22-2.8a9.62,9.62,0,0,0-5.26,1.72,28.62,28.62,0,0,0-5.69,5.19V59.76h-2.16V37.87c0-3.84-.66-6.69-2-8.57s-3.4-2.8-6.23-2.8q-4.89,0-10.94,6.91V59.76h-2.16Z"/><path d="M237.45,16.56a2.41,2.41,0,0,1-1.72-.68,2.31,2.31,0,0,1-.72-1.77,2.23,2.23,0,0,1,.72-1.83,2.54,2.54,0,0,1,1.72-.62,2.59,2.59,0,0,1,1.73.62,2.26,2.26,0,0,1,.72,1.83,2.34,2.34,0,0,1-.72,1.77A2.45,2.45,0,0,1,237.45,16.56Zm-1.15,8.78h2.16V59.76H236.3Z"/><path d="M252.28,25.34h1.88l.28,5.48h.15a33,33,0,0,1,5.54-4.54,11.62,11.62,0,0,1,6.41-1.8q5.32,0,7.85,3.17t2.52,9.93V59.76h-2.16V37.87c0-3.84-.65-6.69-1.95-8.57s-3.43-2.8-6.4-2.8a10.81,10.81,0,0,0-5.94,1.72,34.67,34.67,0,0,0-6,5.19V59.76h-2.16Z"/><path d="M291.31,16.56a2.43,2.43,0,0,1-1.73-.68,2.34,2.34,0,0,1-.72-1.77,2.26,2.26,0,0,1,.72-1.83,2.71,2.71,0,0,1,3.45,0,2.26,2.26,0,0,1,.72,1.83,2.34,2.34,0,0,1-.72,1.77A2.43,2.43,0,0,1,291.31,16.56Zm-1.16,8.78h2.16V59.76h-2.16Z"/><path d="M318.38,9.94a8,8,0,0,0-2.13-.8,10.34,10.34,0,0,0-2.05-.21,4.65,4.65,0,0,0-4.28,2.16,11.5,11.5,0,0,0-1.33,6.05v8.2h8.2v2h-8.2v32.4h-2.16V27.36h-4.76V25.63l4.76-.29V16.85c0-3.41.7-5.92,2.12-7.53a7.36,7.36,0,0,1,5.8-2.41,11.6,11.6,0,0,1,4.75,1.15Z"/><path d="M320.72,73.4a6.64,6.64,0,0,0,1.55.18,6.86,6.86,0,0,0,5.5-2.77,22.16,22.16,0,0,0,3.71-7l1-3.17L318.23,25.34h2.45L329.47,48c.57,1.44,1.2,3,1.87,4.75s1.34,3.36,2,4.9h.29q.87-2.31,1.69-4.9c.55-1.72,1.1-3.31,1.62-4.75l7.78-22.61H347L333.21,64.66a29.28,29.28,0,0,1-1.62,4,16.94,16.94,0,0,1-2.34,3.57,11.54,11.54,0,0,1-3.13,2.55,8.14,8.14,0,0,1-4,1,7.3,7.3,0,0,1-3.31-.72l.58-2A11.44,11.44,0,0,0,320.72,73.4Z"/></svg>